<svg width="22" height="22" viewBox="0 0 22 22" fill="none" xmlns="http://www.w3.org/2000/svg">
<g clip-path="url(#clip0_29_3231)">
<path d="M19.5066 5.86673L10.7616 14.6117C9.89074 15.4825 7.30572 15.8859 6.72822 15.3084C6.15072 14.7309 6.54488 12.1459 7.41572 11.275L16.1699 2.52087C16.3858 2.28534 16.6471 2.09602 16.9383 1.96429C17.2293 1.83257 17.5441 1.76116 17.8635 1.75443C18.1829 1.74771 18.5004 1.80577 18.7968 1.92513C19.0932 2.04449 19.3623 2.22269 19.5879 2.44892C19.8135 2.67516 19.9909 2.94475 20.1095 3.24144C20.228 3.53813 20.2853 3.85576 20.2777 4.17517C20.2701 4.49458 20.1977 4.80917 20.0653 5.0999C19.9327 5.39062 19.7427 5.65149 19.5066 5.86673Z" stroke="black" stroke-width="2" stroke-linecap="round" stroke-linejoin="round"/>
<path d="M10.083 3.66675H5.49967C4.52721 3.66675 3.59464 4.05305 2.907 4.74069C2.21937 5.42832 1.83301 6.36095 1.83301 7.33341V16.5001C1.83301 17.4726 2.21937 18.4052 2.907 19.0928C3.59464 19.7805 4.52721 20.1667 5.49967 20.1667H15.583C17.6088 20.1667 18.333 18.5167 18.333 16.5001V11.9167" stroke="black" stroke-width="2" stroke-linecap="round" stroke-linejoin="round"/>
</g>
<defs>
<clipPath id="clip0_29_3231">
<rect width="22" height="22" fill="white"/>
</clipPath>
</defs>
</svg>
