<svg width="28" height="28" viewBox="0 0 28 28" fill="none" xmlns="http://www.w3.org/2000/svg">
<g clip-path="url(#clip0_29_2659)">
<path d="M6.06667 0C2.73804 0 0 2.73804 0 6.06667V21.9333C0 25.262 2.73804 28 6.06667 28H14.0736C17.1656 28 19.7464 25.6371 20.098 22.6333H16.307C16.0217 23.5975 15.1528 24.2667 14.0736 24.2667H6.06667C4.74172 24.2667 3.73333 23.2583 3.73333 21.9333V6.06667C3.73333 4.74172 4.74172 3.73333 6.06667 3.73333H14.0736C15.1528 3.73333 16.0217 4.40252 16.307 5.36667H20.098C19.7464 2.36288 17.1656 0 14.0736 0H6.06667Z" fill="white" fill-opacity="0.9"/>
<path d="M22.2536 8.3999C22.0085 8.39989 21.7658 8.44816 21.5393 8.54197C21.3128 8.63577 21.107 8.77326 20.9337 8.94659C20.7603 9.11993 20.6228 9.32572 20.529 9.5522C20.4352 9.77868 20.3869 10.0214 20.3869 10.2666C20.3869 10.5117 20.4352 10.7545 20.529 10.9809C20.6228 11.2074 20.7603 11.4132 20.9337 11.5865L21.4804 12.1332H7.64059C7.14552 12.1332 6.67073 12.3299 6.32066 12.68C5.97059 13.03 5.77393 13.5048 5.77393 13.9999C5.77393 14.495 5.97059 14.9698 6.32066 15.3198C6.67073 15.6699 7.14552 15.8666 7.64059 15.8666H21.4804L20.9337 16.4133C20.7603 16.5866 20.6228 16.7924 20.529 17.0189C20.4352 17.2453 20.3869 17.4881 20.3869 17.7332C20.3869 17.9784 20.4352 18.2211 20.529 18.4476C20.6228 18.6741 20.7603 18.8799 20.9337 19.0532C21.107 19.2266 21.3128 19.3641 21.5393 19.4579C21.7658 19.5517 22.0085 19.6 22.2536 19.6C22.4988 19.6 22.7415 19.5517 22.968 19.4579C23.1945 19.3641 23.4003 19.2266 23.5736 19.0532L26.9705 15.6563C27.2782 15.5019 27.5371 15.2656 27.7188 14.9732C27.9005 14.6809 27.9978 14.3441 28 13.9999C27.9996 13.6505 27.9011 13.3082 27.7157 13.0119C27.5303 12.7157 27.2655 12.4775 26.9514 12.3244L23.5736 8.94659C23.4003 8.77326 23.1945 8.63577 22.968 8.54197C22.7415 8.44816 22.4988 8.39989 22.2536 8.3999Z" fill="white" fill-opacity="0.9"/>
</g>
<defs>
<clipPath id="clip0_29_2659">
<rect width="28" height="28" fill="white"/>
</clipPath>
</defs>
</svg>
