<svg width="32" height="32" viewBox="0 0 32 32" fill="none" xmlns="http://www.w3.org/2000/svg">
<g clip-path="url(#clip0_29_2644)">
<path d="M15.9999 30.471C16.5598 30.4581 17.0972 30.2476 17.5169 29.8767C17.9366 29.5058 18.2116 28.9984 18.2932 28.4443H13.6177C13.7017 29.0135 13.9895 29.5328 14.4277 29.9056C14.8659 30.2784 15.4246 30.4793 15.9999 30.471Z" fill="#ADBFC3"/>
<path d="M29.1998 25.0045L28.8976 24.7379C28.0402 23.974 27.2897 23.0979 26.6665 22.1334C25.9858 20.8024 25.5778 19.3487 25.4665 17.8579V13.4668C25.4629 12.9334 25.4153 12.4012 25.3243 11.8757C23.8186 11.5662 22.4661 10.7459 21.4958 9.55369C20.5255 8.36147 19.997 6.87059 19.9998 5.33344C19.9998 5.14677 19.9998 4.9601 19.9998 4.77344C19.0718 4.31672 18.0746 4.01638 17.0487 3.88455V2.76455C17.0487 2.44982 16.9237 2.14799 16.7011 1.92545C16.4786 1.7029 16.1768 1.57788 15.862 1.57788C15.5473 1.57788 15.2455 1.7029 15.0229 1.92545C14.8004 2.14799 14.6754 2.44982 14.6754 2.76455V3.92899C12.3782 4.25304 10.2759 5.39721 8.75647 7.15027C7.23704 8.90332 6.40314 11.1469 6.40872 13.4668V17.8579C6.29739 19.3487 5.88941 20.8024 5.20872 22.1334C4.59617 23.0955 3.85778 23.9714 3.01316 24.7379L2.71094 25.0045V27.5112H29.1998V25.0045Z" fill="#ADBFC3"/>
<path d="M26.6666 9.7778C29.1212 9.7778 31.1111 7.78796 31.1111 5.33336C31.1111 2.87876 29.1212 0.888916 26.6666 0.888916C24.212 0.888916 22.2222 2.87876 22.2222 5.33336C22.2222 7.78796 24.212 9.7778 26.6666 9.7778Z" fill="#ADBFC3"/>
</g>
<defs>
<clipPath id="clip0_29_2644">
<rect width="32" height="32" fill="white"/>
</clipPath>
</defs>
</svg>
